<svg xmlns="http://www.w3.org/2000/svg" width="430" height="932" viewBox="0 0 430 932">
  <defs>
    <linearGradient id="wall" x1="0" y1="0" x2="1" y2="1">
      <stop offset="0" stop-color="#3355bb"/>
      <stop offset="0.5" stop-color="#7d57d8"/>
      <stop offset="1" stop-color="#df6f9f"/>
    </linearGradient>
  </defs>
  <rect width="430" height="932" fill="url(#wall)"/>
  <rect x="153" y="12" width="124" height="34" rx="17" fill="#000"/>
  <text x="24" y="35" fill="#fff" font-size="16" font-family="-apple-system,Segoe UI,sans-serif">9:41</text>
  <text x="355" y="35" fill="#fff" font-size="16">5G 🔋</text>
  <g font-family="-apple-system,Segoe UI,sans-serif" text-anchor="middle" fill="#fff">
    <g>
      <rect x="24" y="88" width="74" height="74" rx="18" fill="#ffffff"/><text x="61" y="134" fill="#111" font-size="26">17</text><text x="61" y="178" font-size="12">Calendar</text>
      <rect x="124" y="88" width="74" height="74" rx="18" fill="#ff6b6b"/><text x="161" y="134" font-size="26">✿</text><text x="161" y="178" font-size="12">Photos</text>
      <rect x="224" y="88" width="74" height="74" rx="18" fill="#2c2c2c"/><text x="261" y="134" font-size="26">◉</text><text x="261" y="178" font-size="12">Camera</text>
      <rect x="324" y="88" width="74" height="74" rx="18" fill="#0a6fff"/><text x="361" y="134" font-size="26">✉</text><text x="361" y="178" font-size="12">Mail</text>
    </g>
  </g>
  <circle cx="205" cy="760" r="3.5" fill="#fff" opacity=".7"/>
  <circle cx="219" cy="760" r="3.5" fill="#fff" opacity=".3"/>
  <circle cx="233" cy="760" r="3.5" fill="#fff" opacity=".3"/>
  <rect x="8" y="788" width="414" height="106" rx="30" fill="rgba(255,255,255,.25)"/>
  <g text-anchor="middle" fill="#fff" font-size="12" font-family="-apple-system,Segoe UI,sans-serif">
    <rect x="34" y="804" width="74" height="74" rx="18" fill="#0dad3f"/><text x="71" y="848" font-size="26">✆</text><text x="71" y="888">Phone</text>
    <rect x="132" y="804" width="74" height="74" rx="18" fill="#107dff"/><text x="169" y="848" font-size="26">🧭</text><text x="169" y="888">Safari</text>
    <rect x="230" y="804" width="74" height="74" rx="18" fill="#2eb956"/><text x="267" y="848" font-size="26">💬</text><text x="267" y="888">Messages</text>
    <rect x="328" y="804" width="74" height="74" rx="18" fill="#717171"/><text x="365" y="848" font-size="26">⚙</text><text x="365" y="888">Utilities</text>
  </g>
  <rect x="145" y="918" width="140" height="5" rx="3" fill="#fff"/>
</svg>
